HIERARCHY
ROOT Hips
{
	OFFSET 0.000000 0.000000 0.000000
	CHANNELS 6 Xposition Yposition Zposition Zrotation Yrotation Xrotation 
	JOINT LowerBack
	{
		OFFSET 0.000000 0.000000 0.000000
		CHANNELS 3 Zrotation Yrotation Xrotation
		JOINT Spine
		{
			OFFSET 0.028270 2.035590 -0.193380
			CHANNELS 3 Zrotation Yrotation Xrotation
			JOINT Spine1
			{
				OFFSET 0.056720 2.048850 -0.042750
				CHANNELS 3 Zrotation Yrotation Xrotation
				JOINT Neck
				{
					OFFSET 0.000000 0.000000 0.000000
					CHANNELS 3 Zrotation Yrotation Xrotation
					JOINT Neck1
					{
						OFFSET -0.054170 1.746240 0.172020
						CHANNELS 3 Zrotation Yrotation Xrotation
						JOINT Head
						{
							OFFSET 0.104070 1.761360 -0.123970
							CHANNELS 3 Zrotation Yrotation Xrotation
							End Site
							{
								OFFSET 0.000000 0.000000 0.000000
							}
						}
					}
				}
				JOINT LeftShoulder
				{
					OFFSET 0.000000 0.000000 0.000000
					CHANNELS 3 Zrotation Yrotation Xrotation
					JOINT LeftArm
					{
						OFFSET 3.362410 1.200890 -0.311210
						CHANNELS 3 Zrotation Yrotation Xrotation
						JOINT LeftForeArm
						{
							OFFSET 4.983000 -0.000000 -0.000000
							CHANNELS 3 Zrotation Yrotation Xrotation
							JOINT LeftHand
							{
								OFFSET 3.483560 -0.000000 -0.000000
								CHANNELS 3 Zrotation Yrotation Xrotation
								JOINT LeftFingerBase
								{
									OFFSET 0.000000 0.000000 0.000000
									CHANNELS 3 Zrotation Yrotation Xrotation
									JOINT LeftHandIndex1
									{
										OFFSET 0.715260 -0.000000 -0.000000
										CHANNELS 3 Zrotation Yrotation Xrotation
										End Site
										{
											OFFSET 0.000000 0.000000 0.000000
										}
									}
								}
								JOINT LThumb
								{
									OFFSET 0.000000 0.000000 0.000000
									CHANNELS 3 Zrotation Yrotation Xrotation
									End Site
									{
										OFFSET 0.000000 0.000000 0.000000
									}
								}
							}
						}
					}
				}
				JOINT RightShoulder
				{
					OFFSET 0.000000 0.000000 0.000000
					CHANNELS 3 Zrotation Yrotation Xrotation
					JOINT RightArm
					{
						OFFSET -3.136600 1.374050 -0.404650
						CHANNELS 3 Zrotation Yrotation Xrotation
						JOINT RightForeArm
						{
							OFFSET -5.241900 -0.000000 -0.000000
							CHANNELS 3 Zrotation Yrotation Xrotation
							JOINT RightHand
							{
								OFFSET -3.444170 -0.000000 -0.000000
								CHANNELS 3 Zrotation Yrotation Xrotation
								JOINT RightFingerBase
								{
									OFFSET 0.000000 0.000000 0.000000
									CHANNELS 3 Zrotation Yrotation Xrotation
									JOINT RightHandIndex1
									{
										OFFSET -0.622530 -0.000000 -0.000000
										CHANNELS 3 Zrotation Yrotation Xrotation
										End Site
										{
											OFFSET 0.000000 0.000000 0.000000
										}
									}
								}
								JOINT RThumb
								{
									OFFSET 0.000000 0.000000 0.000000
									CHANNELS 3 Zrotation Yrotation Xrotation
									End Site
									{
										OFFSET 0.000000 0.000000 0.000000
									}
								}
							}
						}
					}
				}
			}
		}
	}
}
}
MOTION
Frames: 10
Frame Time: 0.008333
3.847014 17.325273 -1.229361 130.298911 -50.684166 -126.830547 -23.437452 -2.640575 0.616413 -5.485832 -1.123997 -2.645729 -7.412449 -1.086662 -0.475633 4.096843 -8.013934 -3.136557 -4.355526 -0.364045 0.767533 0.000000 0.000000 0.000000 -0.709872 8.863328 3.442093 -64.433262 11.286687 -1.460146 -3.073081 -34.628691 0.014679 9.487621 -2.537239 -0.202531 0.015907 -0.093795 -0.000000 0.000000 0.000000 0.000000 0.000000 0.000000 0.000000 8.570060 -4.103691 -5.882283 93.945925 34.506404 38.453769 -179.962890 66.550213 179.854422 -13.427090 15.042115 -1.949623 0.315280 -1.042130 -0.000000 0.000000 0.000000 0.000000 0.000000 0.000000 0.000000 
3.862368 17.345087 -1.238535 130.200720 -50.968683 -126.218891 -23.313529 -2.619207 0.380834 -5.474728 -1.093548 -2.684636 -7.440243 -1.056553 -0.451977 4.128629 -8.037410 -3.141902 -4.352316 -0.364299 0.768474 0.000000 0.000000 0.000000 -0.785951 8.809464 3.417831 -64.457263 10.976877 -1.365162 -3.097420 -34.354267 0.013886 9.152299 -2.301932 -0.176730 0.014031 -0.091275 -0.000000 0.000000 0.000000 0.000000 0.000000 0.000000 0.000000 8.569978 -4.129525 -5.860893 94.050779 34.302049 38.396169 -179.952423 66.611267 179.854189 -13.450685 15.062152 -1.955393 0.315227 -1.042127 -0.000000 0.000000 0.000000 0.000000 0.000000 0.000000 0.000000 
3.877993 17.366455 -1.247740 130.278355 -51.150124 -125.855424 -23.191979 -2.557263 0.174426 -5.468921 -1.022564 -2.719823 -7.467593 -0.984828 -0.434222 4.155302 -8.044722 -3.148676 -4.349319 -0.364701 0.768371 0.000000 0.000000 0.000000 -0.867130 8.802346 3.389050 -64.494598 10.678810 -1.309241 -3.118098 -34.089815 0.013199 8.845600 -2.091095 -0.154628 0.012470 -0.089229 -0.000000 0.000000 0.000000 0.000000 0.000000 0.000000 0.000000 8.571055 -4.103231 -5.834005 94.137885 34.098819 38.356720 -179.947683 66.684454 179.854184 -13.463757 15.077892 -1.959260 0.315335 -1.042015 -0.000000 0.000000 0.000000 0.000000 0.000000 0.000000 0.000000 
3.893326 17.389073 -1.255951 130.582086 -51.198282 -125.838047 -23.066587 -2.444593 0.025617 -5.467360 -0.902302 -2.746505 -7.490670 -0.862440 -0.424315 4.167228 -8.029369 -3.159109 -4.345687 -0.365148 0.766514 0.000000 0.000000 0.000000 -0.961621 8.869362 3.355737 -64.560127 10.395288 -1.304801 -3.133124 -33.832316 0.012658 8.588940 -1.918326 -0.137331 0.011338 -0.087753 -0.000000 0.000000 0.000000 0.000000 0.000000 0.000000 0.000000 8.562619 -4.008918 -5.804744 94.204330 33.907947 38.348096 -179.949074 66.772923 179.854453 -13.461213 15.094867 -1.960926 0.315399 -1.041852 -0.000000 0.000000 0.000000 0.000000 0.000000 0.000000 0.000000 
3.907340 17.412700 -1.261550 131.165278 -51.090575 -126.253813 -22.916270 -2.271449 -0.044463 -5.465254 -0.725929 -2.763122 -7.505191 -0.682579 -0.426402 4.150854 -7.988445 -3.173722 -4.340152 -0.365528 0.763094 0.000000 0.000000 0.000000 -1.092031 9.021464 3.317490 -64.666326 10.154021 -1.365655 -3.139296 -33.599123 0.012293 8.396546 -1.791183 -0.124935 0.010764 -0.087006 -0.000000 0.000000 0.000000 0.000000 0.000000 0.000000 0.000000 8.527707 -3.836420 -5.774391 94.243359 33.740286 38.384129 -179.956418 66.881935 179.855045 -13.438970 15.117244 -1.960296 0.315206 -1.041565 -0.000000 0.000000 0.000000 0.000000 0.000000 0.000000 0.000000 
3.918908 17.436945 -1.263008 132.052237 -50.824077 -127.127589 -22.713682 -2.036251 -0.035318 -5.454626 -0.495721 -2.772320 -7.507310 -0.448099 -0.439250 4.095523 -7.922050 -3.195976 -4.330847 -0.365614 0.757754 0.000000 0.000000 0.000000 -1.276198 9.276237 3.273062 -64.824299 9.963991 -1.491376 -3.134877 -33.393875 0.012120 8.277332 -1.717115 -0.117842 0.010761 -0.087037 -0.000000 0.000000 0.000000 0.000000 0.000000 0.000000 0.000000 8.447942 -3.588407 -5.746037 94.251294 33.603846 38.477215 -179.968576 67.009240 179.856017 -13.392723 15.148593 -1.957373 0.314559 -1.041076 -0.000000 0.000000 0.000000 0.000000 0.000000 0.000000 0.000000 
3.927336 17.461427 -1.260452 133.188873 -50.420727 -128.360492 -22.456986 -1.755674 0.027274 -5.431036 -0.230389 -2.780698 -7.496831 -0.178792 -0.457455 4.006661 -7.836770 -3.228210 -4.317804 -0.365303 0.750385 0.000000 0.000000 0.000000 -1.508260 9.626830 3.222969 -65.037437 9.838701 -1.676022 -3.119981 -33.221786 0.012135 8.231456 -1.699003 -0.115850 0.011287 -0.087826 -0.000000 0.000000 0.000000 0.000000 0.000000 0.000000 0.000000 8.328856 -3.288559 -5.720104 94.231402 33.502569 38.639356 -179.985631 67.153940 179.857461 -13.319218 15.190650 -1.951655 0.313527 -1.040348 -0.000000 0.000000 0.000000 0.000000 0.000000 0.000000 0.000000 
3.933650 17.485228 -1.257033 134.384270 -49.911807 -129.706312 -22.221162 -1.471283 0.105636 -5.406162 0.033630 -2.792492 -7.479088 0.088174 -0.472661 3.917129 -7.745637 -3.268780 -4.304722 -0.364806 0.741141 0.000000 0.000000 0.000000 -1.731503 10.031764 3.172708 -65.298997 9.794386 -1.909961 -3.098031 -33.084355 0.012314 8.250869 -1.735138 -0.118560 0.012294 -0.089264 -0.000000 0.000000 0.000000 0.000000 0.000000 0.000000 0.000000 8.220226 -2.978992 -5.693658 94.204506 33.438283 38.882012 179.989124 67.315440 179.859489 -13.216403 15.242951 -1.942832 0.312580 -1.039660 -0.000000 0.000000 0.000000 0.000000 0.000000 0.000000 0.000000 
3.939025 17.507481 -1.255701 135.425612 -49.342471 -130.917806 -22.090966 -1.228048 0.173330 -5.394871 0.258899 -2.806976 -7.458229 0.315110 -0.476821 3.858554 -7.664434 -3.314830 -4.294990 -0.364359 0.730241 0.000000 0.000000 0.000000 -1.890355 10.442908 3.128834 -65.600753 9.841055 -2.180662 -3.073701 -32.979133 0.012615 8.320468 -1.818961 -0.125570 0.013680 -0.091191 -0.000000 0.000000 0.000000 0.000000 0.000000 0.000000 0.000000 8.170185 -2.703003 -5.663963 94.187534 33.413323 39.210010 179.952927 67.496217 179.862160 -13.084576 15.303712 -1.930899 0.312128 -1.039213 -0.000000 0.000000 0.000000 0.000000 0.000000 0.000000 0.000000 
3.943410 17.527505 -1.257291 136.183011 -48.774217 -131.838571 -22.096686 -1.058961 0.210414 -5.403044 0.417893 -2.820746 -7.435283 0.474479 -0.462847 3.842804 -7.607793 -3.364911 -4.288515 -0.363975 0.717926 0.000000 0.000000 0.000000 -1.963862 10.827094 3.094913 -65.938200 9.980960 -2.471864 -3.050811 -32.899357 0.012996 8.419077 -1.939214 -0.135682 0.015270 -0.093451 -0.000000 0.000000 0.000000 0.000000 0.000000 0.000000 0.000000 8.188623 -2.494962 -5.631963 94.187424 33.425430 39.617483 179.906795 67.686952 179.865423 -12.926339 15.369680 -1.915556 0.312273 -1.039057 -0.000000 0.000000 0.000000 0.000000 0.000000 0.000000 0.000000 
